{"title":"Torn.2013.HDRiP.XViD.AC3-FiRE","uid":9549651,"size":1462128630,"categoryP":"video","categoryS":"movies","magnet":"?xt=urn:btih:0e02c4e7599e4559c2ecaad28d641a0a408a5fd1&amp;dn=Torn.2013.HDRiP.XViD.AC3-FiRE&amp;tr=udp%3A%2F%2Ftracker.openbittorrent.com%3A80&amp;tr=udp%3A%2F%2Fopen.demonii.com%3A1337&amp;tr=udp%3A%2F%2Ftracker.coppersurfer.tk%3A6969&amp;tr=udp%3A%2F%2Fexodus.desync.com%3A6969","seeders":9,"leechers":1,"uploader":"Acesn8s","files":-1,"time":1391219038,"description":"Torn.2013.HDRiP.XViD.AC3-FiRE\n\n**********************************************************************************\n\nFormat                                   : AVI\nFormat/Info                              : Audio Video Interleave\nFile size                                : 1.36 GiB\nDuration                                 : 1h 19mn\nOverall bit rate                         : 2 451 Kbps\nWriting application                      : VirtualDubMod 1.5.10.2 \nWriting library                          : VirtualDubMod build 2542/release\n\n**********************************************************************************\n\nVideo\n\nID                                       : 0\nFormat                                   : MPEG-4 Visual\nFormat profile                           : Advanced Simple@L5\nFormat settings, BVOP                    : 2\nFormat settings, QPel                    : No\nFormat settings, GMC                     : No warppoints\nFormat settings, Matrix                  : Default (H.263)\nMuxing mode                              : Packed bitstream\nCodec ID                                 : XVID\nCodec ID/Hint                            : XviD\nDuration                                 : 1h 19mn\nBit rate                                 : 2 058 Kbps\nWidth                                    : 720 pixels\nHeight                                   : 300 pixels\nDisplay aspect ratio                     : 2.40:1\nFrame rate                               : 23.976 fps\nColor space                              : YUV\nChroma subsampling                       : 4:2:0\nBit depth                                : 8 bits\nScan type                                : Progressive\nCompression mode                         : Lossy\nBits/(Pixel*Frame)                       : 0.397\nStream size                              : 1.14 GiB (84%)\nWriting library                          : XviD 65\n\n**********************************************************************************\n\nAudio\n\nID                                       : 1\nFormat                                   : AC-3\nFormat/Info                              : Audio Coding 3\nMode extension                           : CM (complete main)\nFormat settings, Endianness              : Big\nCodec ID                                 : 2000\nDuration                                 : 1h 19mn\nBit rate mode                            : Constant\nBit rate                                 : 384 Kbps\nChannel(s)                               : 6 channels\nChannel positions                        : Front: L C R, Side: L R, LFE\nSampling rate                            : 48.0 KHz\nBit depth                                : 16 bits\nCompression mode                         : Lossy\nStream size                              : 218 MiB (16%)\nAlignment                                : Split accross interleaves\nInterleave, duration                     : 42 ms (1.00 video frame)\nInterleave, preload duration             : 500 ms\nSource                                   : iTUNES\n\n**********************************************************************************\n\nGenre: \n\nDrama  \n\nActors:\n\nMahnoor Baloch, Faran Tahir, Dendrie Taylor \n\nPlot: \n\nTwo families bond when their teenage sons are killed in an explosion at a \nsuburban mall only to discover one of their children is the prime suspect. \n\n**********************************************************************************\n\nIMDb: \n  &lt;a href=&quot;\nhttp://www.imdb.com/title/tt1423636/&quot; rel=&quot;nofollow&quot; target=&quot;_NEW&quot;&gt;\nhttp://www.imdb.com/title/tt1423636/&lt;/a&gt;\n\n**********************************************************************************\n\nScreens: \n &lt;a href=&quot;\nhttp://img.acianetmedia.com/i/Yv6e9.jpg&quot; rel=&quot;nofollow&quot; target=&quot;_NEW&quot;&gt;\nhttp://img.acianetmedia.com/i/Yv6e9.jpg&lt;/a&gt;\n &lt;a href=&quot;\nhttp://img.acianetmedia.com/i/zJHKT.jpg&quot; rel=&quot;nofollow&quot; target=&quot;_NEW&quot;&gt;\nhttp://img.acianetmedia.com/i/zJHKT.jpg&lt;/a&gt;\n &lt;a href=&quot;\nhttp://img.acianetmedia.com/i/M0uqD.jpg&quot; rel=&quot;nofollow&quot; target=&quot;_NEW&quot;&gt;\nhttp://img.acianetmedia.com/i/M0uqD.jpg&lt;/a&gt;\n &lt;a href=&quot;\nhttp://img.acianetmedia.com/i/8opTh.jpg&quot; rel=&quot;nofollow&quot; target=&quot;_NEW&quot;&gt;\nhttp://img.acianetmedia.com/i/8opTh.jpg&lt;/a&gt;\n &lt;a href=&quot;\nhttp://img.acianetmedia.com/i/SPZX0.jpg&quot; rel=&quot;nofollow&quot; target=&quot;_NEW&quot;&gt;\nhttp://img.acianetmedia.com/i/SPZX0.jpg&lt;/a&gt;","torrent":{"xt":"urn:btih:0e02c4e7599e4559c2ecaad28d641a0a408a5fd1","amp;dn":"Torn.2013.HDRiP.XViD.AC3-FiRE","amp;tr":["udp%3A%2F%2Ftracker.openbittorrent.com%3A80","udp%3A%2F%2Fopen.demonii.com%3A1337","udp%3A%2F%2Ftracker.coppersurfer.tk%3A6969","udp%3A%2F%2Fexodus.desync.com%3A6969"],"infoHash":"0e02c4e7599e4559c2ecaad28d641a0a408a5fd1","infoHashBuffer":{"type":"Buffer","data":[14,2,196,231,89,158,69,89,194,236,170,210,141,100,26,10,64,138,95,209]},"announce":[],"urlList":[]}}